<mxfile host="app.diagrams.net" modified="2023-10-25T10:55:11.420Z" agent="Mozilla/5.0 (Windows NT 10.0; Win64; x64) AppleWebKit/537.36 (KHTML, like Gecko) Chrome/116.0.0.0 Safari/537.36 OPR/102.0.0.0" etag="5aD_Bm9jD0D-8iTlttyg" version="22.0.8" type="device">
  <diagram id="C5RBs43oDa-KdzZeNtuy" name="Page-1">
    <mxGraphModel dx="553" dy="1616" grid="1" gridSize="10" guides="1" tooltips="1" connect="1" arrows="1" fold="1" page="1" pageScale="1" pageWidth="1400" pageHeight="850" math="0" shadow="0">
      <root>
        <mxCell id="WIyWlLk6GJQsqaUBKTNV-0" />
        <mxCell id="WIyWlLk6GJQsqaUBKTNV-1" parent="WIyWlLk6GJQsqaUBKTNV-0" />
        <mxCell id="RVy_GbqzNWbiaxADThbf-0" value="User" style="swimlane;fontStyle=0;childLayout=stackLayout;horizontal=1;startSize=26;fillColor=none;horizontalStack=0;resizeParent=1;resizeParentMax=0;resizeLast=0;collapsible=1;marginBottom=0;whiteSpace=wrap;html=1;" parent="WIyWlLk6GJQsqaUBKTNV-1" vertex="1">
          <mxGeometry x="145" y="294" width="140" height="104" as="geometry" />
        </mxCell>
        <mxCell id="RVy_GbqzNWbiaxADThbf-1" value="- username: String" style="text;strokeColor=none;fillColor=none;align=left;verticalAlign=top;spacingLeft=4;spacingRight=4;overflow=hidden;rotatable=0;points=[[0,0.5],[1,0.5]];portConstraint=eastwest;whiteSpace=wrap;html=1;" parent="RVy_GbqzNWbiaxADThbf-0" vertex="1">
          <mxGeometry y="26" width="140" height="26" as="geometry" />
        </mxCell>
        <mxCell id="RVy_GbqzNWbiaxADThbf-2" value="- email: String" style="text;strokeColor=none;fillColor=none;align=left;verticalAlign=top;spacingLeft=4;spacingRight=4;overflow=hidden;rotatable=0;points=[[0,0.5],[1,0.5]];portConstraint=eastwest;whiteSpace=wrap;html=1;" parent="RVy_GbqzNWbiaxADThbf-0" vertex="1">
          <mxGeometry y="52" width="140" height="26" as="geometry" />
        </mxCell>
        <mxCell id="RVy_GbqzNWbiaxADThbf-3" value="- id: String" style="text;strokeColor=none;fillColor=none;align=left;verticalAlign=top;spacingLeft=4;spacingRight=4;overflow=hidden;rotatable=0;points=[[0,0.5],[1,0.5]];portConstraint=eastwest;whiteSpace=wrap;html=1;" parent="RVy_GbqzNWbiaxADThbf-0" vertex="1">
          <mxGeometry y="78" width="140" height="26" as="geometry" />
        </mxCell>
        <mxCell id="RVy_GbqzNWbiaxADThbf-12" value="Dimensions" style="swimlane;fontStyle=0;childLayout=stackLayout;horizontal=1;startSize=26;fillColor=none;horizontalStack=0;resizeParent=1;resizeParentMax=0;resizeLast=0;collapsible=1;marginBottom=0;whiteSpace=wrap;html=1;" parent="WIyWlLk6GJQsqaUBKTNV-1" vertex="1">
          <mxGeometry x="145" y="505" width="140" height="104" as="geometry" />
        </mxCell>
        <mxCell id="RVy_GbqzNWbiaxADThbf-13" value="- length: String" style="text;strokeColor=none;fillColor=none;align=left;verticalAlign=top;spacingLeft=4;spacingRight=4;overflow=hidden;rotatable=0;points=[[0,0.5],[1,0.5]];portConstraint=eastwest;whiteSpace=wrap;html=1;" parent="RVy_GbqzNWbiaxADThbf-12" vertex="1">
          <mxGeometry y="26" width="140" height="26" as="geometry" />
        </mxCell>
        <mxCell id="RVy_GbqzNWbiaxADThbf-14" value="- width: String" style="text;strokeColor=none;fillColor=none;align=left;verticalAlign=top;spacingLeft=4;spacingRight=4;overflow=hidden;rotatable=0;points=[[0,0.5],[1,0.5]];portConstraint=eastwest;whiteSpace=wrap;html=1;" parent="RVy_GbqzNWbiaxADThbf-12" vertex="1">
          <mxGeometry y="52" width="140" height="26" as="geometry" />
        </mxCell>
        <mxCell id="RVy_GbqzNWbiaxADThbf-15" value="- height: String" style="text;strokeColor=none;fillColor=none;align=left;verticalAlign=top;spacingLeft=4;spacingRight=4;overflow=hidden;rotatable=0;points=[[0,0.5],[1,0.5]];portConstraint=eastwest;whiteSpace=wrap;html=1;" parent="RVy_GbqzNWbiaxADThbf-12" vertex="1">
          <mxGeometry y="78" width="140" height="26" as="geometry" />
        </mxCell>
        <mxCell id="RVy_GbqzNWbiaxADThbf-20" value="Item" style="swimlane;fontStyle=0;childLayout=stackLayout;horizontal=1;startSize=26;fillColor=none;horizontalStack=0;resizeParent=1;resizeParentMax=0;resizeLast=0;collapsible=1;marginBottom=0;whiteSpace=wrap;html=1;" parent="WIyWlLk6GJQsqaUBKTNV-1" vertex="1">
          <mxGeometry x="505" y="323" width="140" height="286" as="geometry" />
        </mxCell>
        <mxCell id="RVy_GbqzNWbiaxADThbf-21" value="- id: String" style="text;strokeColor=none;fillColor=none;align=left;verticalAlign=top;spacingLeft=4;spacingRight=4;overflow=hidden;rotatable=0;points=[[0,0.5],[1,0.5]];portConstraint=eastwest;whiteSpace=wrap;html=1;" parent="RVy_GbqzNWbiaxADThbf-20" vertex="1">
          <mxGeometry y="26" width="140" height="26" as="geometry" />
        </mxCell>
        <mxCell id="RVy_GbqzNWbiaxADThbf-25" value="- title: String" style="text;strokeColor=none;fillColor=none;align=left;verticalAlign=top;spacingLeft=4;spacingRight=4;overflow=hidden;rotatable=0;points=[[0,0.5],[1,0.5]];portConstraint=eastwest;whiteSpace=wrap;html=1;" parent="RVy_GbqzNWbiaxADThbf-20" vertex="1">
          <mxGeometry y="52" width="140" height="26" as="geometry" />
        </mxCell>
        <mxCell id="RVy_GbqzNWbiaxADThbf-24" value="- maker: String" style="text;strokeColor=none;fillColor=none;align=left;verticalAlign=top;spacingLeft=4;spacingRight=4;overflow=hidden;rotatable=0;points=[[0,0.5],[1,0.5]];portConstraint=eastwest;whiteSpace=wrap;html=1;" parent="RVy_GbqzNWbiaxADThbf-20" vertex="1">
          <mxGeometry y="78" width="140" height="26" as="geometry" />
        </mxCell>
        <mxCell id="RVy_GbqzNWbiaxADThbf-22" value="- description: String" style="text;strokeColor=none;fillColor=none;align=left;verticalAlign=top;spacingLeft=4;spacingRight=4;overflow=hidden;rotatable=0;points=[[0,0.5],[1,0.5]];portConstraint=eastwest;whiteSpace=wrap;html=1;" parent="RVy_GbqzNWbiaxADThbf-20" vertex="1">
          <mxGeometry y="104" width="140" height="26" as="geometry" />
        </mxCell>
        <mxCell id="RVy_GbqzNWbiaxADThbf-26" value="- status: String" style="text;strokeColor=none;fillColor=none;align=left;verticalAlign=top;spacingLeft=4;spacingRight=4;overflow=hidden;rotatable=0;points=[[0,0.5],[1,0.5]];portConstraint=eastwest;whiteSpace=wrap;html=1;" parent="RVy_GbqzNWbiaxADThbf-20" vertex="1">
          <mxGeometry y="130" width="140" height="26" as="geometry" />
        </mxCell>
        <mxCell id="RVy_GbqzNWbiaxADThbf-27" value="- minimum_bid: Float" style="text;strokeColor=none;fillColor=none;align=left;verticalAlign=top;spacingLeft=4;spacingRight=4;overflow=hidden;rotatable=0;points=[[0,0.5],[1,0.5]];portConstraint=eastwest;whiteSpace=wrap;html=1;" parent="RVy_GbqzNWbiaxADThbf-20" vertex="1">
          <mxGeometry y="156" width="140" height="26" as="geometry" />
        </mxCell>
        <mxCell id="RVy_GbqzNWbiaxADThbf-28" value="- borrower: User" style="text;strokeColor=none;fillColor=none;align=left;verticalAlign=top;spacingLeft=4;spacingRight=4;overflow=hidden;rotatable=0;points=[[0,0.5],[1,0.5]];portConstraint=eastwest;whiteSpace=wrap;html=1;" parent="RVy_GbqzNWbiaxADThbf-20" vertex="1">
          <mxGeometry y="182" width="140" height="26" as="geometry" />
        </mxCell>
        <mxCell id="RVy_GbqzNWbiaxADThbf-29" value="- owner_id: String" style="text;strokeColor=none;fillColor=none;align=left;verticalAlign=top;spacingLeft=4;spacingRight=4;overflow=hidden;rotatable=0;points=[[0,0.5],[1,0.5]];portConstraint=eastwest;whiteSpace=wrap;html=1;" parent="RVy_GbqzNWbiaxADThbf-20" vertex="1">
          <mxGeometry y="208" width="140" height="26" as="geometry" />
        </mxCell>
        <mxCell id="RVy_GbqzNWbiaxADThbf-30" value="# image: Bitmap" style="text;strokeColor=none;fillColor=none;align=left;verticalAlign=top;spacingLeft=4;spacingRight=4;overflow=hidden;rotatable=0;points=[[0,0.5],[1,0.5]];portConstraint=eastwest;whiteSpace=wrap;html=1;" parent="RVy_GbqzNWbiaxADThbf-20" vertex="1">
          <mxGeometry y="234" width="140" height="26" as="geometry" />
        </mxCell>
        <mxCell id="RVy_GbqzNWbiaxADThbf-23" value="# image_base64: String" style="text;strokeColor=none;fillColor=none;align=left;verticalAlign=top;spacingLeft=4;spacingRight=4;overflow=hidden;rotatable=0;points=[[0,0.5],[1,0.5]];portConstraint=eastwest;whiteSpace=wrap;html=1;" parent="RVy_GbqzNWbiaxADThbf-20" vertex="1">
          <mxGeometry y="260" width="140" height="26" as="geometry" />
        </mxCell>
        <mxCell id="RVy_GbqzNWbiaxADThbf-31" value="Bid" style="swimlane;fontStyle=0;childLayout=stackLayout;horizontal=1;startSize=26;fillColor=none;horizontalStack=0;resizeParent=1;resizeParentMax=0;resizeLast=0;collapsible=1;marginBottom=0;whiteSpace=wrap;html=1;" parent="WIyWlLk6GJQsqaUBKTNV-1" vertex="1">
          <mxGeometry x="770" y="375" width="180" height="130" as="geometry" />
        </mxCell>
        <mxCell id="RVy_GbqzNWbiaxADThbf-32" value="- item_id: String" style="text;strokeColor=none;fillColor=none;align=left;verticalAlign=top;spacingLeft=4;spacingRight=4;overflow=hidden;rotatable=0;points=[[0,0.5],[1,0.5]];portConstraint=eastwest;whiteSpace=wrap;html=1;" parent="RVy_GbqzNWbiaxADThbf-31" vertex="1">
          <mxGeometry y="26" width="180" height="26" as="geometry" />
        </mxCell>
        <mxCell id="RVy_GbqzNWbiaxADThbf-33" value="- bid_id: String" style="text;strokeColor=none;fillColor=none;align=left;verticalAlign=top;spacingLeft=4;spacingRight=4;overflow=hidden;rotatable=0;points=[[0,0.5],[1,0.5]];portConstraint=eastwest;whiteSpace=wrap;html=1;" parent="RVy_GbqzNWbiaxADThbf-31" vertex="1">
          <mxGeometry y="52" width="180" height="26" as="geometry" />
        </mxCell>
        <mxCell id="RVy_GbqzNWbiaxADThbf-35" value="- bid_amount: Float" style="text;strokeColor=none;fillColor=none;align=left;verticalAlign=top;spacingLeft=4;spacingRight=4;overflow=hidden;rotatable=0;points=[[0,0.5],[1,0.5]];portConstraint=eastwest;whiteSpace=wrap;html=1;" parent="RVy_GbqzNWbiaxADThbf-31" vertex="1">
          <mxGeometry y="78" width="180" height="26" as="geometry" />
        </mxCell>
        <mxCell id="RVy_GbqzNWbiaxADThbf-34" value="- bidder_username: String" style="text;strokeColor=none;fillColor=none;align=left;verticalAlign=top;spacingLeft=4;spacingRight=4;overflow=hidden;rotatable=0;points=[[0,0.5],[1,0.5]];portConstraint=eastwest;whiteSpace=wrap;html=1;" parent="RVy_GbqzNWbiaxADThbf-31" vertex="1">
          <mxGeometry y="104" width="180" height="26" as="geometry" />
        </mxCell>
        <mxCell id="RVy_GbqzNWbiaxADThbf-41" value="BidList" style="swimlane;fontStyle=0;childLayout=stackLayout;horizontal=1;startSize=26;fillColor=none;horizontalStack=0;resizeParent=1;resizeParentMax=0;resizeLast=0;collapsible=1;marginBottom=0;whiteSpace=wrap;html=1;" parent="WIyWlLk6GJQsqaUBKTNV-1" vertex="1">
          <mxGeometry x="1115" y="401" width="140" height="52" as="geometry" />
        </mxCell>
        <mxCell id="RVy_GbqzNWbiaxADThbf-42" value="- bids: ArrayList&amp;lt;Bid&amp;gt;" style="text;strokeColor=none;fillColor=none;align=left;verticalAlign=top;spacingLeft=4;spacingRight=4;overflow=hidden;rotatable=0;points=[[0,0.5],[1,0.5]];portConstraint=eastwest;whiteSpace=wrap;html=1;" parent="RVy_GbqzNWbiaxADThbf-41" vertex="1">
          <mxGeometry y="26" width="140" height="26" as="geometry" />
        </mxCell>
        <mxCell id="RVy_GbqzNWbiaxADThbf-45" value="UserList" style="swimlane;fontStyle=0;childLayout=stackLayout;horizontal=1;startSize=26;fillColor=none;horizontalStack=0;resizeParent=1;resizeParentMax=0;resizeLast=0;collapsible=1;marginBottom=0;whiteSpace=wrap;html=1;" parent="WIyWlLk6GJQsqaUBKTNV-1" vertex="1">
          <mxGeometry x="1115" y="242" width="140" height="52" as="geometry" />
        </mxCell>
        <mxCell id="RVy_GbqzNWbiaxADThbf-46" value="- users: ArrayList&amp;lt;User&amp;gt;" style="text;strokeColor=none;fillColor=none;align=left;verticalAlign=top;spacingLeft=4;spacingRight=4;overflow=hidden;rotatable=0;points=[[0,0.5],[1,0.5]];portConstraint=eastwest;whiteSpace=wrap;html=1;" parent="RVy_GbqzNWbiaxADThbf-45" vertex="1">
          <mxGeometry y="26" width="140" height="26" as="geometry" />
        </mxCell>
        <mxCell id="RVy_GbqzNWbiaxADThbf-49" value="ItemList" style="swimlane;fontStyle=0;childLayout=stackLayout;horizontal=1;startSize=26;fillColor=none;horizontalStack=0;resizeParent=1;resizeParentMax=0;resizeLast=0;collapsible=1;marginBottom=0;whiteSpace=wrap;html=1;" parent="WIyWlLk6GJQsqaUBKTNV-1" vertex="1">
          <mxGeometry x="1115" y="557" width="140" height="52" as="geometry" />
        </mxCell>
        <mxCell id="RVy_GbqzNWbiaxADThbf-50" value="- items: ArrayList&amp;lt;Item&amp;gt;" style="text;strokeColor=none;fillColor=none;align=left;verticalAlign=top;spacingLeft=4;spacingRight=4;overflow=hidden;rotatable=0;points=[[0,0.5],[1,0.5]];portConstraint=eastwest;whiteSpace=wrap;html=1;" parent="RVy_GbqzNWbiaxADThbf-49" vertex="1">
          <mxGeometry y="26" width="140" height="26" as="geometry" />
        </mxCell>
        <mxCell id="RVy_GbqzNWbiaxADThbf-53" value="Sharing App - Capstone 4.1&lt;br&gt;Collene De Silva" style="text;align=center;fontStyle=1;verticalAlign=middle;spacingLeft=3;spacingRight=3;strokeColor=none;rotatable=0;points=[[0,0.5],[1,0.5]];portConstraint=eastwest;html=1;" parent="WIyWlLk6GJQsqaUBKTNV-1" vertex="1">
          <mxGeometry x="110" y="70" width="80" height="26" as="geometry" />
        </mxCell>
        <mxCell id="RVy_GbqzNWbiaxADThbf-56" value="" style="endArrow=diamond;endFill=0;endSize=24;html=1;rounded=0;exitX=1;exitY=0.5;exitDx=0;exitDy=0;entryX=0;entryY=0.5;entryDx=0;entryDy=0;edgeStyle=orthogonalEdgeStyle;" parent="WIyWlLk6GJQsqaUBKTNV-1" source="RVy_GbqzNWbiaxADThbf-2" target="RVy_GbqzNWbiaxADThbf-25" edge="1">
          <mxGeometry width="160" relative="1" as="geometry">
            <mxPoint x="380" y="459" as="sourcePoint" />
            <mxPoint x="540" y="459" as="targetPoint" />
          </mxGeometry>
        </mxCell>
        <mxCell id="RVy_GbqzNWbiaxADThbf-67" value="1" style="edgeLabel;html=1;align=center;verticalAlign=middle;resizable=0;points=[];" parent="RVy_GbqzNWbiaxADThbf-56" vertex="1" connectable="0">
          <mxGeometry x="-0.882" y="-2" relative="1" as="geometry">
            <mxPoint x="-9" y="11" as="offset" />
          </mxGeometry>
        </mxCell>
        <mxCell id="RVy_GbqzNWbiaxADThbf-68" value="1" style="edgeLabel;html=1;align=center;verticalAlign=middle;resizable=0;points=[];" parent="RVy_GbqzNWbiaxADThbf-56" vertex="1" connectable="0">
          <mxGeometry x="0.9019" y="2" relative="1" as="geometry">
            <mxPoint y="-17" as="offset" />
          </mxGeometry>
        </mxCell>
        <mxCell id="RVy_GbqzNWbiaxADThbf-57" value="" style="endArrow=diamond;endFill=0;endSize=24;html=1;rounded=0;exitX=1;exitY=0.5;exitDx=0;exitDy=0;entryX=0;entryY=0.5;entryDx=0;entryDy=0;edgeStyle=orthogonalEdgeStyle;" parent="WIyWlLk6GJQsqaUBKTNV-1" source="RVy_GbqzNWbiaxADThbf-14" target="RVy_GbqzNWbiaxADThbf-30" edge="1">
          <mxGeometry width="160" relative="1" as="geometry">
            <mxPoint x="380" y="459" as="sourcePoint" />
            <mxPoint x="540" y="459" as="targetPoint" />
          </mxGeometry>
        </mxCell>
        <mxCell id="RVy_GbqzNWbiaxADThbf-65" value="1" style="edgeLabel;html=1;align=center;verticalAlign=middle;resizable=0;points=[];" parent="RVy_GbqzNWbiaxADThbf-57" vertex="1" connectable="0">
          <mxGeometry x="-0.6909" y="2" relative="1" as="geometry">
            <mxPoint x="-29" y="11" as="offset" />
          </mxGeometry>
        </mxCell>
        <mxCell id="RVy_GbqzNWbiaxADThbf-66" value="1" style="edgeLabel;html=1;align=center;verticalAlign=middle;resizable=0;points=[];" parent="RVy_GbqzNWbiaxADThbf-57" vertex="1" connectable="0">
          <mxGeometry x="0.9018" y="-1" relative="1" as="geometry">
            <mxPoint y="-22" as="offset" />
          </mxGeometry>
        </mxCell>
        <mxCell id="RVy_GbqzNWbiaxADThbf-58" value="" style="endArrow=diamond;endFill=0;endSize=24;html=1;rounded=0;exitX=1;exitY=0.135;exitDx=0;exitDy=0;entryX=0.5;entryY=0;entryDx=0;entryDy=0;edgeStyle=orthogonalEdgeStyle;exitPerimeter=0;" parent="WIyWlLk6GJQsqaUBKTNV-1" source="RVy_GbqzNWbiaxADThbf-0" target="RVy_GbqzNWbiaxADThbf-31" edge="1">
          <mxGeometry width="160" relative="1" as="geometry">
            <mxPoint x="295" y="369" as="sourcePoint" />
            <mxPoint x="515" y="398" as="targetPoint" />
          </mxGeometry>
        </mxCell>
        <mxCell id="RVy_GbqzNWbiaxADThbf-69" value="1" style="edgeLabel;html=1;align=center;verticalAlign=middle;resizable=0;points=[];" parent="RVy_GbqzNWbiaxADThbf-58" vertex="1" connectable="0">
          <mxGeometry x="-0.9585" y="1" relative="1" as="geometry">
            <mxPoint x="-8" y="13" as="offset" />
          </mxGeometry>
        </mxCell>
        <mxCell id="RVy_GbqzNWbiaxADThbf-70" value="1" style="edgeLabel;html=1;align=center;verticalAlign=middle;resizable=0;points=[];" parent="RVy_GbqzNWbiaxADThbf-58" vertex="1" connectable="0">
          <mxGeometry x="0.9679" y="3" relative="1" as="geometry">
            <mxPoint x="17" as="offset" />
          </mxGeometry>
        </mxCell>
        <mxCell id="RVy_GbqzNWbiaxADThbf-60" value="" style="endArrow=diamond;endFill=0;endSize=24;html=1;rounded=0;exitX=1;exitY=0.5;exitDx=0;exitDy=0;entryX=0;entryY=0.75;entryDx=0;entryDy=0;edgeStyle=orthogonalEdgeStyle;" parent="WIyWlLk6GJQsqaUBKTNV-1" source="RVy_GbqzNWbiaxADThbf-23" target="RVy_GbqzNWbiaxADThbf-49" edge="1">
          <mxGeometry width="160" relative="1" as="geometry">
            <mxPoint x="560" y="679" as="sourcePoint" />
            <mxPoint x="780" y="708" as="targetPoint" />
          </mxGeometry>
        </mxCell>
        <mxCell id="RVy_GbqzNWbiaxADThbf-77" value="0..*" style="edgeLabel;html=1;align=center;verticalAlign=middle;resizable=0;points=[];" parent="RVy_GbqzNWbiaxADThbf-60" vertex="1" connectable="0">
          <mxGeometry x="-0.9216" y="2" relative="1" as="geometry">
            <mxPoint x="-3" y="15" as="offset" />
          </mxGeometry>
        </mxCell>
        <mxCell id="RVy_GbqzNWbiaxADThbf-78" value="1" style="edgeLabel;html=1;align=center;verticalAlign=middle;resizable=0;points=[];" parent="RVy_GbqzNWbiaxADThbf-60" vertex="1" connectable="0">
          <mxGeometry x="0.9605" y="5" relative="1" as="geometry">
            <mxPoint y="-12" as="offset" />
          </mxGeometry>
        </mxCell>
        <mxCell id="RVy_GbqzNWbiaxADThbf-61" value="" style="endArrow=diamond;endFill=0;endSize=24;html=1;rounded=0;exitX=1;exitY=0.5;exitDx=0;exitDy=0;entryX=0;entryY=0.5;entryDx=0;entryDy=0;edgeStyle=orthogonalEdgeStyle;" parent="WIyWlLk6GJQsqaUBKTNV-1" source="RVy_GbqzNWbiaxADThbf-26" target="RVy_GbqzNWbiaxADThbf-35" edge="1">
          <mxGeometry width="160" relative="1" as="geometry">
            <mxPoint x="582" y="619" as="sourcePoint" />
            <mxPoint x="1125" y="604" as="targetPoint" />
          </mxGeometry>
        </mxCell>
        <mxCell id="RVy_GbqzNWbiaxADThbf-75" value="0..*" style="edgeLabel;html=1;align=center;verticalAlign=middle;resizable=0;points=[];" parent="RVy_GbqzNWbiaxADThbf-61" vertex="1" connectable="0">
          <mxGeometry x="0.7486" y="3" relative="1" as="geometry">
            <mxPoint x="6" y="-10" as="offset" />
          </mxGeometry>
        </mxCell>
        <mxCell id="RVy_GbqzNWbiaxADThbf-76" value="0..*" style="edgeLabel;html=1;align=center;verticalAlign=middle;resizable=0;points=[];" parent="RVy_GbqzNWbiaxADThbf-61" vertex="1" connectable="0">
          <mxGeometry x="-0.7966" relative="1" as="geometry">
            <mxPoint y="13" as="offset" />
          </mxGeometry>
        </mxCell>
        <mxCell id="RVy_GbqzNWbiaxADThbf-63" value="" style="endArrow=diamond;endFill=0;endSize=24;html=1;rounded=0;exitX=1;exitY=0.5;exitDx=0;exitDy=0;entryX=0;entryY=0.75;entryDx=0;entryDy=0;edgeStyle=orthogonalEdgeStyle;" parent="WIyWlLk6GJQsqaUBKTNV-1" source="RVy_GbqzNWbiaxADThbf-33" target="RVy_GbqzNWbiaxADThbf-41" edge="1">
          <mxGeometry width="160" relative="1" as="geometry">
            <mxPoint x="975" y="536" as="sourcePoint" />
            <mxPoint x="1125" y="544" as="targetPoint" />
          </mxGeometry>
        </mxCell>
        <mxCell id="RVy_GbqzNWbiaxADThbf-73" value="1" style="edgeLabel;html=1;align=center;verticalAlign=middle;resizable=0;points=[];" parent="RVy_GbqzNWbiaxADThbf-63" vertex="1" connectable="0">
          <mxGeometry x="0.8228" y="-3" relative="1" as="geometry">
            <mxPoint y="-16" as="offset" />
          </mxGeometry>
        </mxCell>
        <mxCell id="RVy_GbqzNWbiaxADThbf-74" value="0..*" style="edgeLabel;html=1;align=center;verticalAlign=middle;resizable=0;points=[];" parent="RVy_GbqzNWbiaxADThbf-63" vertex="1" connectable="0">
          <mxGeometry x="-0.5315" y="2" relative="1" as="geometry">
            <mxPoint x="-29" y="11" as="offset" />
          </mxGeometry>
        </mxCell>
        <mxCell id="RVy_GbqzNWbiaxADThbf-64" value="" style="endArrow=diamond;endFill=0;endSize=24;html=1;rounded=0;exitX=0.5;exitY=0;exitDx=0;exitDy=0;entryX=0;entryY=0.5;entryDx=0;entryDy=0;edgeStyle=orthogonalEdgeStyle;" parent="WIyWlLk6GJQsqaUBKTNV-1" source="RVy_GbqzNWbiaxADThbf-0" target="RVy_GbqzNWbiaxADThbf-46" edge="1">
          <mxGeometry width="160" relative="1" as="geometry">
            <mxPoint x="985" y="458" as="sourcePoint" />
            <mxPoint x="1125" y="472" as="targetPoint" />
          </mxGeometry>
        </mxCell>
        <mxCell id="RVy_GbqzNWbiaxADThbf-71" value="0..*" style="edgeLabel;html=1;align=center;verticalAlign=middle;resizable=0;points=[];" parent="RVy_GbqzNWbiaxADThbf-64" vertex="1" connectable="0">
          <mxGeometry x="-0.9796" y="-2" relative="1" as="geometry">
            <mxPoint x="-17" y="-3" as="offset" />
          </mxGeometry>
        </mxCell>
        <mxCell id="RVy_GbqzNWbiaxADThbf-72" value="1" style="edgeLabel;html=1;align=center;verticalAlign=middle;resizable=0;points=[];" parent="RVy_GbqzNWbiaxADThbf-64" vertex="1" connectable="0">
          <mxGeometry x="0.974" y="3" relative="1" as="geometry">
            <mxPoint y="-19" as="offset" />
          </mxGeometry>
        </mxCell>
      </root>
    </mxGraphModel>
  </diagram>
</mxfile>
